<?xml version="1.0" encoding="utf-8"?>
<!DOCTYPE svg PUBLIC "-//W3C//DTD SVG 20010904//EN" "http://www.w3.org/TR/2001/REC-SVG-20010904/DTD/svg10.dtd">
<svg version="1.0" xmlns="http://www.w3.org/2000/svg" width="650pt" height="248pt" viewBox="0 0 650 248" style="" preserveAspectRatio="xMidYMid meet">
<g fill="#0CA5BDFF" stroke="#0CA5BDFF">
<path d="M 85.000 84.196 C 83.075 84.810 79.163 87.038 76.306 89.146 C 72.297 92.105 70.386 94.500 67.937 99.633 C 65.131 105.512 64.762 107.286 64.762 114.902 C 64.762 122.357 65.170 124.419 67.790 130.197 C 71.917 139.299 75.623 144.450 85.547 154.878 C 93.892 163.647 109.711 177.321 115.781 181.013 L 118.901 182.911 124.830 178.546 C 138.983 168.128 155.433 152.393 162.843 142.188 C 164.715 139.609 167.766 134.267 169.623 130.316 C 172.524 124.145 173.000 122.069 173.000 115.603 C 173.000 105.790 170.206 98.204 164.246 91.832 C 154.279 81.176 138.182 80.243 125.261 89.573 C 118.474 94.474 118.171 94.537 115.190 91.686 C 108.561 85.346 93.282 81.555 85.000 84.196 M 103.234 89.986 C 106.154 91.079 110.068 93.246 111.933 94.803 L 115.323 97.633 111.018 103.973 C 102.901 115.926 101.030 125.677 105.250 134.030 C 109.305 142.057 117.223 145.023 125.437 141.591 C 129.107 140.057 133.317 133.834 134.491 128.206 C 135.789 121.984 131.883 110.503 125.867 102.856 C 122.413 98.466 122.369 97.927 125.250 95.287 C 129.473 91.418 136.295 88.714 143.000 88.254 C 148.715 87.861 150.164 88.155 155.000 90.690 C 162.241 94.486 166.361 100.508 167.947 109.615 C 169.947 121.100 166.483 130.430 154.993 144.500 C 146.213 155.252 122.048 177.000 118.881 177.000 C 116.928 177.000 103.279 165.377 91.929 154.049 C 75.585 137.735 69.000 126.771 69.000 115.867 C 69.000 95.251 84.992 83.161 103.234 89.986 M 123.137 107.252 C 128.265 115.513 129.253 118.287 129.313 124.589 C 129.382 131.982 127.500 135.475 122.269 137.661 C 112.187 141.874 104.795 129.736 109.465 116.636 C 111.361 111.319 117.177 103.004 119.000 103.004 C 119.825 103.004 121.687 104.915 123.137 107.252 "/></g>
<g fill="#111111FF" stroke="#111111FF">
<path d="M 302.192 128.750 C 302.539 160.059 302.724 160.904 310.797 168.198 C 315.988 172.887 320.886 174.477 330.000 174.428 C 341.668 174.366 350.162 169.430 354.640 160.108 C 358.684 151.690 356.946 138.029 350.896 130.690 C 344.014 122.340 329.344 119.241 321.595 124.500 C 319.569 125.875 317.706 127.000 317.456 127.000 C 317.205 127.000 317.000 121.150 317.000 114.000 L 317.000 101.000 309.442 101.000 L 301.884 101.000 302.192 128.750 M 338.113 138.809 C 344.377 144.407 342.836 156.499 335.466 159.579 C 324.917 163.986 316.022 157.369 317.296 146.063 C 318.046 139.412 322.184 136.000 329.500 136.000 C 334.081 136.000 335.479 136.456 338.113 138.809 "/></g>
<g fill="#111111FF" stroke="#111111FF">
<path d="M 548.500 123.222 C 532.371 128.940 526.395 148.193 536.032 163.389 C 543.620 175.354 560.110 178.421 569.457 169.605 L 572.999 166.265 574.158 170.132 L 575.317 174.000 582.658 174.000 C 586.696 174.000 590.000 173.579 590.000 173.065 C 590.000 172.551 589.512 170.863 588.916 169.315 C 588.319 167.767 587.455 161.210 586.994 154.745 C 585.890 139.239 584.167 134.234 578.031 128.718 C 575.376 126.331 571.418 123.843 569.236 123.189 C 564.415 121.744 552.614 121.763 548.500 123.222 M 566.055 137.030 C 569.019 138.616 571.000 143.385 571.000 148.935 C 571.000 153.084 570.487 154.543 568.082 157.234 C 565.456 160.174 564.613 160.500 559.655 160.500 C 552.754 160.500 549.046 158.012 547.137 152.102 C 545.937 148.389 545.978 147.347 547.475 143.427 C 548.505 140.730 550.227 138.401 551.838 137.526 C 554.949 135.836 563.282 135.545 566.055 137.030 "/></g>
<g fill="#111111FF" stroke="#111111FF">
<path d="M 431.627 123.468 C 421.955 126.916 415.000 136.791 415.000 147.077 C 415.000 164.629 429.371 177.623 444.918 174.130 C 447.678 173.510 450.604 171.839 452.959 169.540 L 456.661 165.925 457.871 169.963 L 459.080 174.000 466.647 174.000 C 472.816 174.000 474.112 173.734 473.662 172.563 C 471.905 167.984 470.851 161.799 470.090 151.602 C 468.861 135.127 465.299 128.790 454.500 123.867 C 449.624 121.645 437.345 121.430 431.627 123.468 M 449.883 137.631 C 452.670 139.583 455.000 144.768 455.000 149.018 C 455.000 158.375 445.405 163.659 436.278 159.328 C 428.521 155.647 427.890 142.693 435.217 137.561 C 438.198 135.473 446.862 135.514 449.883 137.631 "/></g>
<g fill="#111111FF" stroke="#111111FF">
<path d="M 237.202 138.750 C 237.588 153.669 237.887 156.022 239.941 160.277 C 247.902 176.776 272.373 179.897 284.322 165.937 C 289.258 160.170 290.164 156.253 290.727 138.250 L 291.235 122.000 283.117 122.000 L 275.000 122.000 275.000 137.984 L 275.000 153.968 272.082 157.234 C 269.500 160.124 268.569 160.500 264.000 160.500 C 254.093 160.500 251.370 153.881 252.156 131.708 L 252.500 121.999 244.635 121.999 L 236.769 122.000 237.202 138.750 "/></g>
<g fill="#111111FF" stroke="#111111FF">
<path d="M 481.000 137.500 L 481.000 174.000 488.500 174.000 L 496.000 174.000 496.000 137.500 L 496.000 101.000 488.500 101.000 L 481.000 101.000 481.000 137.500 "/></g>
<g fill="#111111FF" stroke="#111111FF">
<path d="M 391.000 137.500 L 391.000 174.000 398.500 174.000 L 406.000 174.000 406.000 137.500 L 406.000 101.000 398.500 101.000 L 391.000 101.000 391.000 137.500 "/></g>
<g fill="#111111FF" stroke="#111111FF">
<path d="M 211.985 130.750 C 211.975 145.228 211.597 152.227 210.735 153.904 C 208.825 157.621 204.679 160.169 199.614 160.740 L 195.000 161.260 195.000 168.273 L 195.000 175.285 201.250 174.634 C 209.049 173.822 217.016 170.013 221.008 165.186 C 226.146 158.975 227.000 154.077 227.000 130.818 L 227.000 110.000 219.500 110.000 L 212.000 110.000 211.985 130.750 "/></g>
<g fill="#111111FF" stroke="#111111FF">
<path d="M 507.000 147.958 L 507.000 174.000 514.945 174.000 L 522.889 174.000 522.695 148.250 L 522.500 122.500 514.750 122.208 L 507.000 121.916 507.000 147.958 "/></g>
<g fill="#111111FF" stroke="#111111FF">
<path d="M 365.000 148.000 L 365.000 174.000 372.500 174.000 L 380.000 174.000 380.000 148.000 L 380.000 122.000 372.500 122.000 L 365.000 122.000 365.000 148.000 "/></g>
<g fill="#111111FF" stroke="#111111FF">
<path d="M 366.635 101.073 C 363.058 103.886 362.889 110.607 366.314 113.826 C 371.761 118.942 381.000 114.962 381.000 107.500 C 381.000 100.130 372.607 96.375 366.635 101.073 "/></g>
<g fill="#111111FF" stroke="#111111FF">
<path d="M 510.321 100.189 C 509.123 100.768 507.609 102.529 506.958 104.102 C 504.548 109.920 508.436 116.000 514.566 116.000 C 519.460 116.000 521.645 114.606 522.950 110.652 C 525.556 102.755 517.986 96.483 510.321 100.189 "/></g>
</svg>
