<svg width="512" height="512" viewBox="0 0 512 512" xmlns="http://www.w3.org/2000/svg">
  <defs>
    <linearGradient id="grad1" x1="0%" y1="0%" x2="100%" y2="100%">
      <stop offset="0%" style="stop-color:#10B981;stop-opacity:1" />
      <stop offset="100%" style="stop-color:#3B82F6;stop-opacity:1" />
    </linearGradient>
  </defs>
  
  <!-- Background circle -->
  <circle cx="256" cy="256" r="240" fill="url(#grad1)" stroke="#ffffff" stroke-width="8"/>
  
  <!-- Heart icon - MUCH smaller (200% smaller = 50% of original size) -->
  <path d="M256 420c-20-18-38-34-54-48-48-42-80-70-80-110 0-32 24-58 56-58 18 0 34 8 46 22 12-14 28-22 46-22 32 0 56 26 56 58 0 40-32 68-80 110-16 14-34 30-54 48z" 
        fill="#ffffff" 
        transform="scale(0.4) translate(320, 320)"/>
  
  <!-- Text "J" - MUCH smaller -->
  <text x="256" y="320" font-family="Arial, sans-serif" font-size="60" font-weight="bold" text-anchor="middle" fill="#ffffff">J</text>
</svg>
